<?xml version="1.0"?>
<svg enable-background="new 0 0 32 32" version="1.1" viewBox="0 0 32 32"
     xmlns="http://www.w3.org/2000/svg">
  <g fill="#FF0033">
    <!-- Only the YouTube-style rounded shape + play triangle -->
    <path d="M25.965,11.664c0,0-0.198-1.496-0.808-2.155c-0.774-0.863-1.64-0.868-2.038-0.917
      c-2.846-0.221-7.115-0.221-7.115-0.221h-0.01c0,0-4.269,0-7.115,0.221
      C8.483,8.641,7.617,8.646,6.843,9.509c-0.609,0.659-0.808,2.155-0.808,2.155
      s-0.203,1.755-0.203,3.511v1.645c0,1.757,0.203,3.511,0.203,3.511
      s0.198,1.495,0.808,2.153c0.774,0.863,1.79,0.837,2.242,0.928
      C10.712,23.578,16,23.629,16,23.629s4.274-0.008,7.12-0.226
      c0.397-0.051,1.264-0.056,2.038-0.919c0.609-0.657,0.808-2.153,0.808-2.153
      s0.203-1.755,0.203-3.511v-1.645C26.169,13.419,25.965,11.664,25.965,11.664z
      M13.46,19.815v-7.629L19.818,16L13.46,19.815z"/>
  </g>
</svg>
